<svg width="40" height="50" viewBox="0 0 40 50" fill="none" xmlns="http://www.w3.org/2000/svg">
<g clip-path="url(#clip0_72_441)">
<path d="M14.0752 10.1205C13.0981 10.3194 12.3165 10.6749 11.5192 11.2955C10.972 11.7113 10.7297 11.9523 10.4796 12.3319C9.92465 13.1635 9.83867 13.531 9.83867 15.164V16.568H9.21336H8.58805V15.9172C8.58805 15.158 8.4708 14.8265 8.07998 14.4771C7.65789 14.0974 7.15764 13.9589 6.28221 13.989C5.64908 14.0071 5.52402 14.0251 5.1801 14.1878C4.75019 14.3927 4.34374 14.8567 4.25776 15.2242C4.23431 15.3508 4.21086 15.7967 4.21086 16.2124V16.9717L3.88257 17.0862C1.92847 17.761 0.380826 19.3819 0.0681696 21.0751C0.00563843 21.4005 -0.00999437 23.6782 0.00563844 28.6193L0.0290876 35.6994L0.208865 36.1513C0.802911 37.6577 2.04572 38.8147 3.78096 39.4715C5.25044 40.0258 3.6559 39.9776 19.6873 39.9957C30.3802 40.0078 34.007 39.9957 34.4212 39.9415C36.9538 39.6101 38.986 38.176 39.7911 36.1513L39.9709 35.6994L39.9943 28.6193C40.01 23.6782 39.9943 21.4005 39.9318 21.0751C39.6192 19.3819 38.0715 17.761 36.1174 17.0862L35.7891 16.9717V16.2124C35.7891 15.7967 35.7657 15.3508 35.7422 15.2242C35.6562 14.8567 35.2498 14.3927 34.8199 14.1878C34.4838 14.0312 34.3509 14.0071 33.7334 13.983C32.8814 13.9589 32.4672 14.0673 31.9982 14.4289C31.5448 14.7783 31.4119 15.1097 31.4119 15.9172V16.568H30.7866H30.1613V15.1941C30.1613 13.5732 30.091 13.2418 29.5673 12.4163C29.2546 11.9282 29.0983 11.7595 28.4886 11.2955C27.2458 10.3374 26.1202 10 24.213 10C23.1422 10 23.1344 10 22.978 10.1567C22.767 10.3676 22.7748 10.5001 23.0015 10.705C23.1891 10.8737 23.2047 10.8737 24.3537 10.9099C25.3151 10.94 25.5965 10.9701 26.0186 11.0906C27.4178 11.5004 28.5121 12.4283 28.8716 13.525C28.9576 13.7901 28.9889 14.224 28.9889 15.2242V16.568H27.8555H26.7221V15.3146C26.7221 13.8745 26.6674 13.6696 26.1671 13.2297C25.9952 13.0851 25.6747 12.8923 25.4558 12.808L25.0494 12.6513H20H14.9506L14.5441 12.808C14.3253 12.8923 14.0048 13.0851 13.8329 13.2297C13.3326 13.6696 13.2779 13.8745 13.2779 15.3146V16.568H12.1445H11.0111V15.2242C11.0111 14.224 11.0424 13.7901 11.1284 13.525C11.5114 12.3741 12.6838 11.416 14.1611 11.0545C14.7708 10.9038 14.7865 10.9038 17.8817 10.9038C21.0865 10.9038 21.4069 10.8797 21.5633 10.6628C21.6883 10.482 21.6571 10.2531 21.4851 10.1205C21.3366 10.006 21.2272 10 17.9912 10.006C14.9584 10.006 14.591 10.0181 14.0752 10.1205ZM25.0572 13.6756C25.5106 13.8865 25.5496 14.0191 25.5496 15.3628V16.568H20H14.4503V15.3628C14.4503 14.0191 14.4894 13.8865 14.9428 13.6756C15.1851 13.5612 15.3727 13.5551 20 13.5551C24.6273 13.5551 24.8149 13.5612 25.0572 13.6756ZM7.07166 14.9892C7.35306 15.164 7.41559 15.3327 7.41559 15.9533V16.5499L6.57923 16.586C6.11025 16.6101 5.6569 16.6403 5.5631 16.6644C5.38332 16.7005 5.38332 16.7005 5.38332 16.0558C5.38332 15.0736 5.54747 14.8928 6.43854 14.8868C6.76682 14.8868 6.95442 14.9109 7.07166 14.9892ZM34.1789 14.9471C34.5072 15.0676 34.6167 15.3387 34.6167 16.0558C34.6167 16.7005 34.6167 16.7005 34.4447 16.6644C34.3431 16.6403 33.8897 16.6101 33.4286 16.586L32.5844 16.5499V15.9533C32.5844 15.3327 32.6469 15.164 32.9283 14.9892C33.1237 14.8627 33.8741 14.8446 34.1789 14.9471ZM34.2884 17.5682C35.4999 17.761 36.5551 18.219 37.3602 18.9119C37.9152 19.3819 38.2591 19.8278 38.5561 20.4666L38.7984 20.9968L38.8219 28.077C38.8453 35.9947 38.861 35.6874 38.2982 36.6033C37.7041 37.5674 36.8443 38.2483 35.6719 38.6821C34.4447 39.134 35.6328 39.1039 19.9922 39.1039C4.38282 39.1039 5.52402 39.134 4.32811 38.6821C3.15565 38.2422 2.28803 37.5553 1.7018 36.6033C1.13902 35.6874 1.15465 35.9947 1.1781 28.077L1.20155 20.9968L1.41259 20.5148C2.0848 19.0023 3.67153 17.8996 5.66471 17.5742C6.12588 17.4959 8.09561 17.4839 19.9453 17.4778C32.1779 17.4718 33.749 17.4839 34.2884 17.5682Z" fill="#04101C"/>
<path d="M17.2877 20.0026C16.6311 20.105 16.0996 20.4244 15.8026 20.8944L15.5837 21.2378L15.5603 23.0576L15.5368 24.8773L13.1372 24.8954L10.7376 24.9135L10.3155 25.0943C9.87775 25.2811 9.48693 25.6245 9.31497 25.9861C9.25244 26.1186 9.22118 26.8417 9.22118 28.318C9.21336 30.445 9.21336 30.4571 9.40095 30.7584C9.62763 31.132 9.995 31.4031 10.5031 31.5839C10.8392 31.7044 11.0268 31.7225 11.8553 31.7225C12.7776 31.7225 12.8324 31.7165 12.973 31.5779C13.1685 31.3971 13.1606 31.1199 12.9652 30.9693C12.8324 30.8668 12.7073 30.8488 12.0898 30.8488C11.1909 30.8488 10.847 30.7764 10.589 30.5414L10.3858 30.3547V28.312V26.2693L10.6516 26.0403L10.9173 25.8173L13.6531 25.7872C16.2012 25.7571 16.3966 25.7511 16.553 25.6426C16.7171 25.5281 16.7171 25.4859 16.7171 23.5035C16.7171 20.6534 16.4357 20.8763 20 20.8763C22.8295 20.8763 22.8061 20.8703 23.1266 21.286C23.2751 21.4668 23.2829 21.6054 23.2829 23.5035C23.2829 25.4859 23.2829 25.5281 23.447 25.6426C23.6034 25.7511 23.7988 25.7571 26.3469 25.7872L29.0826 25.8173L29.3484 26.0403L29.6142 26.2693V28.312V30.3547L29.4109 30.5414C29.3015 30.6439 29.0826 30.7523 28.9263 30.7885C28.7544 30.8247 27.5975 30.8488 26.1202 30.8488C23.6971 30.8488 23.5877 30.8548 23.4392 30.9693C23.2907 31.0838 23.2829 31.1681 23.2829 33.0782C23.2829 35.2897 23.2672 35.3921 22.7983 35.609C22.556 35.7235 22.4074 35.7295 20 35.7295C17.5925 35.7295 17.444 35.7235 17.2017 35.609C16.7327 35.3921 16.7171 35.2897 16.7171 33.0782C16.7171 30.6499 16.8265 30.8488 15.5134 30.8488C14.6379 30.8488 14.6145 30.8548 14.4582 31.0054C14.2471 31.2103 14.2549 31.3489 14.4738 31.5477C14.6223 31.6803 14.7396 31.7165 15.0991 31.7406L15.5368 31.7647L15.5603 33.5844C15.5837 35.603 15.5915 35.6211 16.1387 36.0911C16.3028 36.2297 16.5764 36.3984 16.7484 36.4707C17.061 36.5972 17.1392 36.6033 20 36.6033C22.8608 36.6033 22.939 36.5972 23.2516 36.4707C23.4236 36.3984 23.6971 36.2297 23.8613 36.0911C24.4084 35.6211 24.4163 35.603 24.4397 33.5784L24.4632 31.7586L26.7846 31.7406C29.0123 31.7225 29.1217 31.7165 29.4969 31.5839C30.005 31.4031 30.3724 31.132 30.599 30.7584C30.7866 30.4571 30.7866 30.445 30.7788 28.318C30.7788 26.8417 30.7475 26.1186 30.685 25.9861C30.5131 25.6245 30.1222 25.2811 29.6845 25.0943L29.2624 24.9135L26.8628 24.8954L24.4632 24.8773L24.4397 23.0576C24.4163 21.3523 24.4084 21.2198 24.2521 20.9607C24.0411 20.6112 23.5877 20.2617 23.1344 20.099C22.7904 19.9785 22.6419 19.9725 20.1954 19.9604C18.7806 19.9544 17.4675 19.9725 17.2877 20.0026Z" fill="#04101C"/>
</g>
<defs>
<clipPath id="clip0_72_441">
<rect width="40" height="50" fill="white"/>
</clipPath>
</defs>
</svg>
