<svg width="50" height="50" viewBox="0 0 50 50" fill="none" xmlns="http://www.w3.org/2000/svg">
<g clip-path="url(#clip0_72_417)">
<path d="M5.39353 10.091C4.67594 10.2617 3.62269 10.8647 3.11344 11.4108C2.85881 11.6839 2.47686 12.2528 2.2801 12.6737L1.90973 13.436L1.87501 16.8721L1.84029 20.3195L2.12964 20.604C2.51158 20.9794 3.04399 20.9794 3.41436 20.604L3.70371 20.3309V17.2362C3.70371 15.1427 3.75001 13.9936 3.8426 13.675C4.02779 13.0492 4.98844 12.1049 5.62501 11.9228C6.31946 11.7294 43.6806 11.7294 44.375 11.9228C45.0116 12.1049 45.9723 13.0492 46.1574 13.675C46.25 13.9936 46.2963 15.1427 46.2963 17.2362V20.3309L46.5857 20.604C46.9561 20.9794 47.4885 20.9794 47.8704 20.604L48.1598 20.3195L48.125 16.8721L48.0903 13.436L47.7199 12.6737C47.2107 11.6156 46.5625 10.9557 45.5093 10.4437L44.6297 10.0228L25.2431 10C13.7847 10 5.65973 10.0341 5.39353 10.091Z" fill="#04101C"/>
<path d="M9.25926 15.5751C8.69213 15.7571 7.71991 16.7356 7.5463 17.3158C7.45371 17.623 7.40741 18.647 7.40741 20.2513V22.7088H4.90741C3.27546 22.7088 2.2338 22.7543 1.9213 22.8454C1.28472 23.0274 0.324074 23.9718 0.138889 24.5975C0.0347222 24.9502 0 26.9413 0 32.2547V39.4453L0.289352 39.7184C0.659723 40.0939 1.19213 40.0939 1.5625 39.7184C1.85185 39.4453 1.85185 39.4453 1.85185 36.9878V34.5416H25H48.1482V36.9878C48.1482 39.4453 48.1482 39.4453 48.4375 39.7184C48.8079 40.0939 49.3403 40.0939 49.7107 39.7184L50 39.4453V32.2547C50 26.9413 49.9653 24.9502 49.8611 24.5975C49.676 23.9718 48.7153 23.0274 48.0787 22.8454C47.7662 22.7543 46.7246 22.7088 45.0926 22.7088H42.5926V20.2513C42.5926 18.647 42.5463 17.623 42.4537 17.3158C42.2685 16.6901 41.3079 15.7457 40.6713 15.5637C39.9884 15.3703 29.456 15.3703 28.7732 15.5637C28.1366 15.7457 27.1759 16.6901 26.9908 17.3158C26.8982 17.623 26.8519 18.647 26.8519 20.2513V22.7088H25H23.1482V20.2513C23.1482 18.647 23.1019 17.623 23.0093 17.3158C22.8241 16.6901 21.8634 15.7457 21.2269 15.5637C20.5903 15.3816 9.86112 15.393 9.25926 15.5751ZM21.007 17.532C21.2963 17.8051 21.2963 17.8051 21.2963 20.2626V22.7088H15.2778H9.25926V20.2626C9.25926 17.8051 9.25926 17.8051 9.54862 17.532L9.82639 17.2476H15.2778H20.7292L21.007 17.532ZM40.4514 17.532C40.7408 17.8051 40.7408 17.8051 40.7408 20.2626V22.7088H34.7222H28.7037V20.2626C28.7037 17.8051 28.7037 17.8051 28.9931 17.532L29.2708 17.2476H34.7222H40.1736L40.4514 17.532ZM47.8588 24.8137L48.1482 25.0868V28.9096V32.7212H25H1.85185V28.9096V25.0868L2.1412 24.8137L2.41898 24.5293H25H47.581L47.8588 24.8137Z" fill="#04101C"/>
</g>
<defs>
<clipPath id="clip0_72_417">
<rect width="50" height="50" fill="white"/>
</clipPath>
</defs>
</svg>
