<svg width="50" height="50" viewBox="0 0 50 50" fill="none" xmlns="http://www.w3.org/2000/svg">
<path d="M2.78106 10.2422C1.39399 10.8073 0.397646 12.1335 0.0948355 13.8056C0.00692264 14.2669 -0.0126135 16.7694 0.00692264 23.262L0.0362269 32.0841L0.270661 32.753C0.729762 34.1023 1.70657 35.1748 2.88851 35.6015C3.45506 35.809 3.79694 35.8321 5.985 35.8321H8.44656L8.57354 36.4087C8.90565 37.9194 10.1071 39.3148 11.504 39.7992C13.692 40.5488 15.9973 39.1418 16.7885 36.5471L17.0132 35.8321L24.8765 35.8552L32.7398 35.8898L32.857 36.3511C33.3943 38.4845 35.1134 39.9837 37.0085 39.9837C38.9035 39.9837 40.6227 38.4845 41.1599 36.3511L41.2771 35.8898L43.6117 35.8321C46.2198 35.7629 46.2686 35.7514 46.8938 34.9326C47.4701 34.183 47.4799 33.9754 47.4408 27.0907C47.4115 21.4745 47.4212 20.9556 47.5678 20.9556C47.6752 20.9556 47.851 21.2785 48.0952 21.9589C48.4957 23.089 48.7888 23.4927 49.2283 23.4927C49.5898 23.4927 50 23.0429 50 22.6393C50 22.3394 49.0037 19.5025 48.8181 19.2834C48.7692 19.2258 48.3492 19.145 47.8901 19.1104L47.0501 19.0528L46.7375 18.0495C45.4481 13.9901 42.3028 10.9226 38.6788 10.173C37.9853 10.0231 35.3479 10 20.6078 10C3.51367 10.0115 3.34761 10.0115 2.78106 10.2422ZM39.0695 12.2027C39.5775 12.3756 40.3296 12.7101 40.7301 12.9407C41.3943 13.3328 42.674 14.3246 42.674 14.4514C42.674 14.4745 33.4431 14.4976 22.161 14.4976C2.39034 14.4976 1.64796 14.486 1.64796 14.29C1.64796 13.8979 2.18521 12.8369 2.54663 12.5025C3.2597 11.8221 2.38057 11.8567 20.9888 11.8798L38.1318 11.9028L39.0695 12.2027ZM7.89954 19.4564V22.4548H4.77375H1.64796V19.4564V16.458H4.77375H7.89954V19.4564ZM17.2574 19.4218L17.2281 22.3971L13.399 22.4317L9.56012 22.4548V19.4564V16.458H13.4185H17.2769L17.2574 19.4218ZM26.5566 19.4564V22.4548H22.6982H18.8398V19.4564V16.458H22.6982H26.5566V19.4564ZM35.8363 19.4564V22.4548H31.9779H28.1195V19.4564V16.458H31.9779H35.8363V19.4564ZM44.5299 17C44.9792 17.8534 45.4188 19.1796 45.6141 20.3213C45.7704 21.1862 45.7997 21.8897 45.7997 24.5998V27.8403L44.6178 27.6327L43.4359 27.4367L41.3064 24.9457L39.177 22.4663L38.3174 22.4317L37.448 22.3971L37.4187 19.4218L37.3992 16.458H40.818H44.2368L44.5299 17ZM40.5836 26.7678L42.7326 29.2242L43.7484 29.4087C44.315 29.5125 45.0085 29.6278 45.2918 29.6739L45.7997 29.7546V31.6805C45.7997 33.1797 45.7704 33.641 45.663 33.7448C45.5751 33.837 44.8913 33.8716 43.4066 33.8486L41.2771 33.814L41.1111 33.2258C40.4371 30.9079 38.3662 29.4317 36.354 29.8238C34.7423 30.1467 33.4236 31.4614 32.9059 33.2258L32.7398 33.814H24.857H16.9741L16.7983 33.2258C16.6029 32.5454 16.134 31.6344 15.7433 31.1962C15.2354 30.6196 14.3367 30.0775 13.5846 29.8815C12.9496 29.72 12.725 29.7085 12.1096 29.8238C10.4197 30.1352 9.0131 31.5652 8.53447 33.468L8.41725 33.9293H6.03384C4.33419 33.9293 3.54297 33.8832 3.289 33.7794C2.68338 33.5257 2.17544 33.0067 1.90193 32.3609L1.64796 31.7497V28.0248V24.2999H20.0413H38.4346L40.5836 26.7678ZM13.9069 32.0034C14.366 32.2802 14.9423 32.9606 15.1768 33.5257C15.2745 33.7448 15.3721 34.2407 15.4014 34.6328C15.5968 37.6081 12.5589 39.2456 10.7616 37.1237C9.66757 35.8436 9.75548 33.641 10.9374 32.4532C11.1621 32.2225 11.5235 31.9573 11.7482 31.865C12.305 31.6113 13.399 31.692 13.9069 32.0034ZM38.3076 32.0611C40.2417 33.3988 40.1831 36.6163 38.2099 37.758C36.5005 38.7382 34.4981 37.4351 34.3027 35.1978C34.1757 33.7217 34.9962 32.2571 36.227 31.7843C36.3638 31.7266 36.7838 31.7036 37.1647 31.7266C37.7118 31.7497 37.9657 31.8304 38.3076 32.0611Z" fill="#04101C"/>
</svg>
