<svg width="30" height="20" viewBox="0 0 30 20" fill="none" xmlns="http://www.w3.org/2000/svg">
<g clip-path="url(#clip0_93_50)">
<path d="M0 10V20H0.953757H1.90751L1.91908 17.4104L1.93642 14.8266H14.7977H27.659L27.6763 17.3815L27.6879 19.9422H28.6416H29.5954V15.1156V10.289H15.7514H1.90751V5.14451V0H0.953757H0V10Z" fill="#04101C"/>
<path d="M4.68785 4.45088C3.99421 4.55493 3.19074 5.1214 2.8208 5.76302C2.21964 6.80926 2.41617 8.20232 3.27744 9.02313C3.80924 9.5318 4.39883 9.7688 5.1445 9.7688C5.69941 9.7688 6.10981 9.65897 6.53756 9.39308C8.01155 8.47978 8.2601 6.43354 7.04045 5.20811C6.43351 4.60117 5.56068 4.31793 4.68785 4.45088Z" fill="#04101C"/>
<path d="M10.578 4.56646C9.94798 4.67629 9.40463 5.09825 9.1792 5.65895C9.05203 5.96531 9.04625 6.06935 9.02891 7.81502L9.01157 9.65317H18.6647H28.3237V8.13294C28.3237 7.30057 28.2948 6.4393 28.2659 6.22542C28.1503 5.4393 27.7804 4.93641 27.1156 4.67051L26.7919 4.53756L18.815 4.53178C14.4278 4.526 10.7225 4.54334 10.578 4.56646Z" fill="#04101C"/>
</g>
<defs>
<clipPath id="clip0_93_50">
<rect width="29.5954" height="20" fill="white"/>
</clipPath>
</defs>
</svg>
