<svg width="30" height="30" viewBox="0 0 30 30" fill="none" xmlns="http://www.w3.org/2000/svg">
<path d="M13.8867 2.4082C9.49804 2.95312 6.05273 6.20508 5.30273 10.5176C4.58788 14.625 6.60937 19.2656 11.2676 24.2227C12.0996 25.1074 13.3535 26.2852 14.3144 27.0938L15 27.668L15.3047 27.416C16.7344 26.2441 18.7207 24.3105 19.8223 23.0215C23.2793 18.9668 24.9609 15.2285 24.8262 11.8652C24.7207 9.25781 23.7715 7.08398 21.9434 5.23828C20.5019 3.7793 18.7148 2.84766 16.6699 2.49023C16.0312 2.37305 14.4902 2.33203 13.8867 2.4082ZM16.1133 7.63477C16.6992 7.79883 17.0977 7.96875 17.5371 8.26172C20.0332 9.89062 20.4082 13.3945 18.3105 15.498C16.207 17.5957 12.7031 17.2207 11.0742 14.7246C10.5527 13.9277 10.3418 13.207 10.3418 12.1875C10.3418 11.168 10.5527 10.4473 11.0684 9.65625C11.7656 8.58984 12.8496 7.85156 14.1211 7.58203C14.5898 7.48242 15.6562 7.51172 16.1133 7.63477Z" fill="black"/>
</svg>
