<svg width="30" height="30" viewBox="0 0 30 30" fill="none" xmlns="http://www.w3.org/2000/svg">
<path d="M13.0666 0.0351562C15.4338 0.210938 17.8713 1.16016 19.7463 2.64258C20.6194 3.32812 21.7619 4.58789 22.3713 5.53711C24.2639 8.46094 24.7912 11.8477 23.883 15.2578C23.6897 15.9902 23.3323 16.8809 22.9045 17.6836C22.6994 18.082 22.5588 18.4219 22.5588 18.5332C22.5588 18.6973 22.9104 19.0723 25.8869 22.0605C28.6526 24.8262 29.2619 25.4707 29.467 25.8164C29.9475 26.6367 30.094 27.3691 29.9182 28.0605C29.801 28.5117 29.6604 28.7578 29.2795 29.1621C28.3479 30.1582 27.1643 30.2578 25.8166 29.4668C25.4709 29.2617 24.8264 28.6523 22.0608 25.8867C19.0725 22.9102 18.6975 22.5586 18.5334 22.5586C18.4221 22.5586 18.0823 22.6992 17.6838 22.9043C15.9846 23.8008 14.3674 24.2344 12.51 24.2988C9.93187 24.3867 7.68773 23.7656 5.53734 22.3711C4.58812 21.7617 3.32835 20.6191 2.64281 19.7461C1.29515 18.041 0.43968 16.0137 0.111555 13.7402C0.000226974 12.9961 0.0178051 11.1445 0.140852 10.377C0.504133 8.07422 1.40648 6.07031 2.8596 4.33594C4.74046 2.08008 7.4182 0.591797 10.3713 0.146484C10.9807 0.0527344 12.4807 -0.00585938 13.0666 0.0351562ZM10.6936 3.31055C9.34593 3.52148 7.9807 4.0957 6.84398 4.92773C6.22874 5.38477 5.28538 6.33984 4.84007 6.96094C2.59593 10.1133 2.65452 14.4727 4.9807 17.5664C6.73851 19.9043 9.62718 21.2695 12.5041 21.1348C14.8596 21.0234 16.8869 20.1387 18.5159 18.5156C22.0491 14.9766 22.0256 9.26367 18.4514 5.75977C16.383 3.73242 13.6116 2.85938 10.6936 3.31055Z" fill="white"/>
<path d="M12.4981 4.92773C15.211 5.22656 17.5723 6.91992 18.7735 9.43359C19.0957 10.1016 19.0547 10.6348 18.6446 11.0508C18.2813 11.4141 17.6543 11.5312 17.2383 11.3086C16.875 11.1152 16.7813 11.0098 16.4356 10.3769C16.0196 9.60937 15.6856 9.17578 15.1758 8.73632C13.6114 7.38867 11.5781 7.04296 9.59182 7.78124C9.04104 7.98632 8.59573 7.92773 8.22073 7.5996C7.7051 7.14843 7.64651 6.29882 8.10354 5.81249C8.36721 5.53124 9.24026 5.19726 10.1778 5.01562C10.7989 4.89843 11.8594 4.85742 12.4981 4.92773Z" fill="white"/>
</svg>
