<svg id="Capa_1" data-name="Capa 1" xmlns="http://www.w3.org/2000/svg" viewBox="0 0 100 100"><defs><style>.cls-1{fill:#919191;}</style></defs><path class="cls-1" d="M96.77,41.49a1.55,1.55,0,0,0-1.42-.75l-18,1,.21-.11-4.1-7.38a1.56,1.56,0,0,0-1.36-.8H66.19l-4-7.12a1.55,1.55,0,0,0-1.36-.8H44.48V21.91a1.56,1.56,0,0,0-1.56-1.56H31a1.56,1.56,0,0,0-1.56,1.56v3.65h-3.8a1.57,1.57,0,0,0-1.52,1.18l-4.6,18.34-3.86.22a1.57,1.57,0,0,0-1.47,1.56v16a7.82,7.82,0,0,1-2.86-1.52A9.69,9.69,0,0,0,4.88,59v3.12a6.74,6.74,0,0,1,4.6,1.73,9.7,9.7,0,0,0,6.46,2.34,9.69,9.69,0,0,0,6.45-2.34,7,7,0,0,1,9.21,0,10.07,10.07,0,0,0,12.91,0,7,7,0,0,1,9.21,0,10.07,10.07,0,0,0,12.91,0,7,7,0,0,1,9.21,0,10.07,10.07,0,0,0,12.91,0,6.74,6.74,0,0,1,4.6-1.73V59a9.69,9.69,0,0,0-6.45,2.34,13.24,13.24,0,0,1-1.43,1L96.78,43.09A1.53,1.53,0,0,0,96.77,41.49ZM26.85,28.68H31a1.56,1.56,0,0,0,1.56-1.56V23.47h8.79v3.65a1.56,1.56,0,0,0,1.57,1.56H60l2.67,4.8H51.51V36.6H71.15l3,5.35L22.79,44.89ZM81.42,63a6.92,6.92,0,0,1-3.73-1.68,10.07,10.07,0,0,0-12.91,0,7,7,0,0,1-9.21,0,10.07,10.07,0,0,0-12.91,0,7,7,0,0,1-9.21,0A9.69,9.69,0,0,0,27,59a9.7,9.7,0,0,0-6.46,2.34,7.36,7.36,0,0,1-3.23,1.61V48.33L92.61,44Z"/><path class="cls-1" d="M71.23,67.6a9.74,9.74,0,0,0-6.45,2.33,7,7,0,0,1-9.21,0,10.11,10.11,0,0,0-12.91,0,7,7,0,0,1-9.21,0,10.11,10.11,0,0,0-12.91,0,6.69,6.69,0,0,1-4.6,1.73v3.12a9.74,9.74,0,0,0,6.45-2.33,7,7,0,0,1,9.21,0,10.11,10.11,0,0,0,12.91,0,7,7,0,0,1,9.21,0,10.11,10.11,0,0,0,12.91,0,7,7,0,0,1,9.21,0,9.74,9.74,0,0,0,6.45,2.33V71.66a6.69,6.69,0,0,1-4.6-1.73A9.75,9.75,0,0,0,71.23,67.6Z"/><rect class="cls-1" x="31" y="33.38" width="5.91" height="3.12"/><rect class="cls-1" x="40.98" y="33.38" width="5.91" height="3.12"/></svg>