<svg width="21" height="20" viewBox="0 0 21 20" fill="none" xmlns="http://www.w3.org/2000/svg">
<g clip-path="url(#clip0_146_287)">
<path d="M20.2667 10C20.2667 4.47715 15.7896 0 10.2667 0C4.74387 0 0.266724 4.47715 0.266724 10C0.266724 14.9912 3.92356 19.1283 8.70422 19.8785V12.8906H6.16516V10H8.70422V7.79688C8.70422 5.29063 10.1972 3.90625 12.4814 3.90625C13.5751 3.90625 14.7198 4.10156 14.7198 4.10156V6.5625H13.4589C12.2167 6.5625 11.8292 7.3334 11.8292 8.125V10H14.6027L14.1593 12.8906H11.8292V19.8785C16.6099 19.1283 20.2667 14.9912 20.2667 10Z" fill="#000100"/>
<path d="M14.1593 12.8906L14.6027 10H11.8292V8.125C11.8292 7.33418 12.2167 6.5625 13.4589 6.5625H14.7198V4.10156C14.7198 4.10156 13.5755 3.90625 12.4814 3.90625C10.1972 3.90625 8.70422 5.29063 8.70422 7.79688V10H6.16516V12.8906H8.70422V19.8785C9.73959 20.0405 10.7939 20.0405 11.8292 19.8785V12.8906H14.1593Z" fill="white"/>
</g>
<defs>
<clipPath id="clip0_146_287">
<rect width="20" height="20" fill="white" transform="translate(0.266724)"/>
</clipPath>
</defs>
</svg>
