<svg width="21" height="20" viewBox="0 0 21 20" fill="none" xmlns="http://www.w3.org/2000/svg">
<g clip-path="url(#clip0_146_282)">
<path d="M10.2667 1.80078C12.9386 1.80078 13.255 1.8125 14.3058 1.85937C15.2824 1.90234 15.8097 2.06641 16.1613 2.20313C16.6261 2.38281 16.962 2.60156 17.3097 2.94922C17.6613 3.30078 17.8761 3.63281 18.0558 4.09766C18.1925 4.44922 18.3566 4.98047 18.3995 5.95312C18.4464 7.00781 18.4581 7.32422 18.4581 9.99219C18.4581 12.6641 18.4464 12.9805 18.3995 14.0313C18.3566 15.0078 18.1925 15.5352 18.0558 15.8867C17.8761 16.3516 17.6574 16.6875 17.3097 17.0352C16.9581 17.3867 16.6261 17.6016 16.1613 17.7813C15.8097 17.918 15.2784 18.082 14.3058 18.125C13.2511 18.1719 12.9347 18.1836 10.2667 18.1836C7.59485 18.1836 7.27844 18.1719 6.22766 18.125C5.2511 18.082 4.72376 17.918 4.37219 17.7813C3.90735 17.6016 3.57141 17.3828 3.22376 17.0352C2.87219 16.6836 2.65735 16.3516 2.47766 15.8867C2.34094 15.5352 2.17688 15.0039 2.13391 14.0313C2.08704 12.9766 2.07532 12.6602 2.07532 9.99219C2.07532 7.32031 2.08704 7.00391 2.13391 5.95312C2.17688 4.97656 2.34094 4.44922 2.47766 4.09766C2.65735 3.63281 2.8761 3.29688 3.22376 2.94922C3.57532 2.59766 3.90735 2.38281 4.37219 2.20313C4.72376 2.06641 5.25501 1.90234 6.22766 1.85937C7.27844 1.8125 7.59485 1.80078 10.2667 1.80078ZM10.2667 0C7.55188 0 7.21204 0.0117187 6.14563 0.0585938C5.08313 0.105469 4.35266 0.277344 3.71985 0.523438C3.05969 0.78125 2.5011 1.12109 1.94641 1.67969C1.38782 2.23438 1.04797 2.79297 0.790161 3.44922C0.544067 4.08594 0.372192 4.8125 0.325317 5.875C0.278442 6.94531 0.266724 7.28516 0.266724 10C0.266724 12.7148 0.278442 13.0547 0.325317 14.1211C0.372192 15.1836 0.544067 15.9141 0.790161 16.5469C1.04797 17.207 1.38782 17.7656 1.94641 18.3203C2.5011 18.875 3.05969 19.2188 3.71594 19.4727C4.35266 19.7188 5.07922 19.8906 6.14172 19.9375C7.20813 19.9844 7.54797 19.9961 10.2628 19.9961C12.9777 19.9961 13.3175 19.9844 14.3839 19.9375C15.4464 19.8906 16.1769 19.7188 16.8097 19.4727C17.4659 19.2188 18.0245 18.875 18.5792 18.3203C19.1339 17.7656 19.4777 17.207 19.7316 16.5508C19.9777 15.9141 20.1495 15.1875 20.1964 14.125C20.2433 13.0586 20.255 12.7188 20.255 10.0039C20.255 7.28906 20.2433 6.94922 20.1964 5.88281C20.1495 4.82031 19.9777 4.08984 19.7316 3.45703C19.4855 2.79297 19.1456 2.23438 18.587 1.67969C18.0324 1.125 17.4738 0.78125 16.8175 0.527344C16.1808 0.28125 15.4542 0.109375 14.3917 0.0625C13.3214 0.0117188 12.9816 0 10.2667 0Z" fill="#000100"/>
<path d="M10.2667 4.86328C7.43079 4.86328 5.13 7.16406 5.13 10C5.13 12.8359 7.43079 15.1367 10.2667 15.1367C13.1027 15.1367 15.4034 12.8359 15.4034 10C15.4034 7.16406 13.1027 4.86328 10.2667 4.86328ZM10.2667 13.332C8.42688 13.332 6.93469 11.8398 6.93469 10C6.93469 8.16016 8.42688 6.66797 10.2667 6.66797C12.1066 6.66797 13.5988 8.16016 13.5988 10C13.5988 11.8398 12.1066 13.332 10.2667 13.332Z" fill="#000100"/>
<path d="M16.8058 4.66016C16.8058 5.32422 16.2667 5.85938 15.6066 5.85938C14.9425 5.85938 14.4073 5.32032 14.4073 4.66016C14.4073 3.99609 14.9464 3.46094 15.6066 3.46094C16.2667 3.46094 16.8058 4 16.8058 4.66016Z" fill="#000100"/>
</g>
<defs>
<clipPath id="clip0_146_282">
<rect width="20" height="20" fill="white" transform="translate(0.266724)"/>
</clipPath>
</defs>
</svg>
