<svg width="21" height="20" viewBox="0 0 21 20" fill="none" xmlns="http://www.w3.org/2000/svg">
<g clip-path="url(#clip0_146_290)">
<rect x="0.266724" width="20" height="20" rx="10" fill="black"/>
<g filter="url(#filter0_ddii_146_290)">
<path fillRule="evenodd" clip-rule="evenodd" d="M3.26672 10C3.26672 6.13401 6.40073 3 10.2667 3C14.1327 3 17.2667 6.13401 17.2667 10C17.2667 13.866 14.1327 17 10.2667 17C8.85401 17 7.53904 16.5815 6.43903 15.8617C6.09896 15.5777 5.01212 15.3287 3.51355 16.8239L3.50204 16.8354L3.4667 16.8L3.43133 16.7647L3.44285 16.7532C4.93801 15.2546 4.68902 14.1678 4.40499 13.8277C3.68521 12.7277 3.26672 11.4127 3.26672 10ZM10.2667 15.5C13.3043 15.5 15.7667 13.0376 15.7667 10C15.7667 6.96243 13.3043 4.5 10.2667 4.5C7.22916 4.5 4.76672 6.96243 4.76672 10C4.76672 13.0376 7.22916 15.5 10.2667 15.5Z" fill="url(#paint0_linear_146_290)"/>
</g>
<g filter="url(#filter1_ddii_146_290)">
<path d="M13.591 12.6082L13.5918 12.6074C13.692 12.5059 13.6917 12.3418 13.591 12.2408L12.4512 11.0895L12.4504 11.0887C12.3498 10.9877 12.187 10.988 12.0868 11.0895L11.4411 11.7509C11.2529 11.9393 10.9581 11.9651 10.7406 11.8121C10.3643 11.5468 10.012 11.2482 9.68794 10.9201C9.3973 10.6281 9.12992 10.3134 8.88829 9.97905C8.72918 9.75957 8.75328 9.45577 8.94497 9.26459L9.61302 8.59097L9.61383 8.59015C9.71401 8.4887 9.71366 8.32456 9.61302 8.22354L8.47531 7.07634L8.4745 7.07553C8.37389 6.97451 8.2111 6.97487 8.11092 7.07634L7.75058 7.43968C7.31328 7.87342 7.15654 8.51904 7.34569 9.1074C7.51069 9.60824 7.74368 10.0836 8.03804 10.52C8.30716 10.9255 8.61571 11.303 8.95915 11.6468C9.33242 12.0254 9.74587 12.3615 10.192 12.649C10.6722 12.9671 11.1998 13.2055 11.7549 13.3553C12.3057 13.4879 12.8853 13.3208 13.2833 12.9144L13.591 12.6062V12.6082Z" fill="url(#paint1_linear_146_290)"/>
</g>
</g>
<defs>
<filter id="filter0_ddii_146_290" x="-11.7333" y="-8" width="44" height="44" filterUnits="userSpaceOnUse" color-interpolation-filters="sRGB">
<feFlood flood-opacity="0" result="BackgroundImageFix"/>
<feColorMatrix in="SourceAlpha" type="matrix" values="0 0 0 0 0 0 0 0 0 0 0 0 0 0 0 0 0 0 127 0" result="hardAlpha"/>
<feOffset dy="4"/>
<feGaussianBlur stdDeviation="7.5"/>
<feColorMatrix type="matrix" values="0 0 0 0 0 0 0 0 0 0 0 0 0 0 0 0 0 0 0.3 0"/>
<feBlend mode="normal" in2="BackgroundImageFix" result="effect1_dropShadow_146_290"/>
<feColorMatrix in="SourceAlpha" type="matrix" values="0 0 0 0 0 0 0 0 0 0 0 0 0 0 0 0 0 0 127 0" result="hardAlpha"/>
<feOffset dy="1"/>
<feGaussianBlur stdDeviation="1.5"/>
<feColorMatrix type="matrix" values="0 0 0 0 0 0 0 0 0 0 0 0 0 0 0 0 0 0 0.25 0"/>
<feBlend mode="normal" in2="effect1_dropShadow_146_290" result="effect2_dropShadow_146_290"/>
<feBlend mode="normal" in="SourceGraphic" in2="effect2_dropShadow_146_290" result="shape"/>
<feColorMatrix in="SourceAlpha" type="matrix" values="0 0 0 0 0 0 0 0 0 0 0 0 0 0 0 0 0 0 127 0" result="hardAlpha"/>
<feOffset dy="-2"/>
<feGaussianBlur stdDeviation="2"/>
<feComposite in2="hardAlpha" operator="arithmetic" k2="-1" k3="1"/>
<feColorMatrix type="matrix" values="0 0 0 0 1 0 0 0 0 1 0 0 0 0 1 0 0 0 0.5 0"/>
<feBlend mode="normal" in2="shape" result="effect3_innerShadow_146_290"/>
<feColorMatrix in="SourceAlpha" type="matrix" values="0 0 0 0 0 0 0 0 0 0 0 0 0 0 0 0 0 0 127 0" result="hardAlpha"/>
<feOffset dy="-2"/>
<feGaussianBlur stdDeviation="6"/>
<feComposite in2="hardAlpha" operator="arithmetic" k2="-1" k3="1"/>
<feColorMatrix type="matrix" values="0 0 0 0 1 0 0 0 0 1 0 0 0 0 1 0 0 0 0.24 0"/>
<feBlend mode="normal" in2="effect3_innerShadow_146_290" result="effect4_innerShadow_146_290"/>
</filter>
<filter id="filter1_ddii_146_290" x="-7.73328" y="-4" width="36.4" height="36.3999" filterUnits="userSpaceOnUse" color-interpolation-filters="sRGB">
<feFlood flood-opacity="0" result="BackgroundImageFix"/>
<feColorMatrix in="SourceAlpha" type="matrix" values="0 0 0 0 0 0 0 0 0 0 0 0 0 0 0 0 0 0 127 0" result="hardAlpha"/>
<feOffset dy="4"/>
<feGaussianBlur stdDeviation="7.5"/>
<feColorMatrix type="matrix" values="0 0 0 0 0 0 0 0 0 0 0 0 0 0 0 0 0 0 0.3 0"/>
<feBlend mode="normal" in2="BackgroundImageFix" result="effect1_dropShadow_146_290"/>
<feColorMatrix in="SourceAlpha" type="matrix" values="0 0 0 0 0 0 0 0 0 0 0 0 0 0 0 0 0 0 127 0" result="hardAlpha"/>
<feOffset dy="1"/>
<feGaussianBlur stdDeviation="1.5"/>
<feColorMatrix type="matrix" values="0 0 0 0 0 0 0 0 0 0 0 0 0 0 0 0 0 0 0.25 0"/>
<feBlend mode="normal" in2="effect1_dropShadow_146_290" result="effect2_dropShadow_146_290"/>
<feBlend mode="normal" in="SourceGraphic" in2="effect2_dropShadow_146_290" result="shape"/>
<feColorMatrix in="SourceAlpha" type="matrix" values="0 0 0 0 0 0 0 0 0 0 0 0 0 0 0 0 0 0 127 0" result="hardAlpha"/>
<feOffset dy="-2"/>
<feGaussianBlur stdDeviation="2"/>
<feComposite in2="hardAlpha" operator="arithmetic" k2="-1" k3="1"/>
<feColorMatrix type="matrix" values="0 0 0 0 1 0 0 0 0 1 0 0 0 0 1 0 0 0 0.5 0"/>
<feBlend mode="normal" in2="shape" result="effect3_innerShadow_146_290"/>
<feColorMatrix in="SourceAlpha" type="matrix" values="0 0 0 0 0 0 0 0 0 0 0 0 0 0 0 0 0 0 127 0" result="hardAlpha"/>
<feOffset dy="-2"/>
<feGaussianBlur stdDeviation="6"/>
<feComposite in2="hardAlpha" operator="arithmetic" k2="-1" k3="1"/>
<feColorMatrix type="matrix" values="0 0 0 0 1 0 0 0 0 1 0 0 0 0 1 0 0 0 0.24 0"/>
<feBlend mode="normal" in2="effect3_innerShadow_146_290" result="effect4_innerShadow_146_290"/>
</filter>
<linearGradient id="paint0_linear_146_290" x1="10.2667" y1="3" x2="10.2667" y2="17" gradientUnits="userSpaceOnUse">
<stop stop-color="#FCFFFC"/>
<stop offset="1" stop-color="#95EFA7"/>
</linearGradient>
<linearGradient id="paint1_linear_146_290" x1="10.4667" y1="7" x2="10.4667" y2="13.4" gradientUnits="userSpaceOnUse">
<stop stop-color="#FBFFFB"/>
<stop offset="1" stop-color="#96EFA8"/>
</linearGradient>
<clipPath id="clip0_146_290">
<rect width="20" height="20" fill="white" transform="translate(0.266724)"/>
</clipPath>
</defs>
</svg>
