<svg width="29" height="20" viewBox="0 0 29 20" fill="none" xmlns="http://www.w3.org/2000/svg">
<path d="M28.42 4.31547C28.42 4.31547 28.1423 2.3549 27.287 1.49403C26.204 0.361011 24.9932 0.355457 24.4378 0.288808C20.4611 -1.58902e-07 14.4906 0 14.4906 0H14.4794C14.4794 0 8.50888 -1.58902e-07 4.53221 0.288808C3.9768 0.355457 2.76603 0.361011 1.683 1.49403C0.827679 2.3549 0.555532 4.31547 0.555532 4.31547C0.555532 4.31547 0.266724 6.62038 0.266724 8.91974V11.0747C0.266724 13.3741 0.549978 15.679 0.549978 15.679C0.549978 15.679 0.827679 17.6395 1.67744 18.5004C2.76048 19.6334 4.1823 19.5946 4.81546 19.7167C7.09261 19.9334 14.485 20 14.485 20C14.485 20 20.4611 19.9889 24.4378 19.7056C24.9932 19.639 26.204 19.6334 27.287 18.5004C28.1423 17.6395 28.42 15.679 28.42 15.679C28.42 15.679 28.7033 13.3796 28.7033 11.0747V8.91974C28.7033 6.62038 28.42 4.31547 28.42 4.31547ZM11.5469 13.6906V5.69842L19.2281 9.70841L11.5469 13.6906Z" fill="black"/>
</svg>
