<?xml version="1.0" standalone="no"?>
<!DOCTYPE svg PUBLIC "-//W3C//DTD SVG 20010904//EN"
 "http://www.w3.org/TR/2001/REC-SVG-20010904/DTD/svg10.dtd">
<svg version="1.0" xmlns="http://www.w3.org/2000/svg"
 width="512.000000pt" height="512.000000pt" viewBox="0 0 512.000000 512.000000"
 preserveAspectRatio="xMidYMid meet">

<g transform="translate(0.000000,512.000000) scale(0.100000,-0.100000)"
fill="#000000" stroke="none">
<path d="M1923 4925 c-118 -32 -207 -104 -259 -210 -28 -59 -29 -65 -34 -252
l-5 -192 -250 -159 c-152 -96 -255 -168 -264 -184 -21 -36 -1 -78 70 -149 99
-99 239 -148 382 -134 l69 7 -4 -28 c-3 -26 -8 -30 -43 -34 -59 -8 -116 -41
-152 -89 -48 -61 -58 -110 -45 -204 14 -97 38 -153 93 -212 45 -49 82 -71 174
-106 49 -18 58 -26 72 -62 52 -131 148 -281 247 -385 32 -34 57 -64 55 -66 -2
-2 -197 -61 -433 -130 -294 -87 -450 -138 -497 -162 -88 -47 -186 -148 -229
-238 -60 -126 -60 -128 -60 -954 l0 -753 25 -24 c30 -30 54 -31 89 -4 l26 20
0 749 c0 513 4 766 11 802 25 119 102 225 205 280 49 26 662 213 671 204 3 -2
43 -238 89 -523 46 -285 87 -530 90 -546 5 -27 5 -27 -44 -27 -35 0 -57 -6
-76 -21 l-26 -20 0 -449 0 -449 26 -20 c26 -21 34 -21 664 -21 630 0 638 0
664 21 l26 20 0 449 0 449 -26 20 c-19 15 -41 21 -76 21 -49 0 -49 0 -44 27 3
16 44 261 90 546 46 285 86 521 89 523 8 8 616 -175 666 -200 100 -51 185
-166 210 -284 8 -37 11 -285 11 -802 l0 -749 26 -20 c35 -28 59 -26 90 4 l25
25 -3 782 -3 783 -27 73 c-14 40 -40 95 -58 122 -46 71 -146 160 -220 196 -36
17 -254 86 -485 154 -231 67 -422 124 -424 126 -2 2 23 33 57 68 101 108 194
253 244 382 13 31 25 44 50 53 140 52 219 115 259 206 29 66 45 190 30 242
-24 89 -106 161 -196 173 -34 4 -40 9 -43 31 l-3 26 108 -1 c87 0 120 5 168
22 79 29 159 85 207 145 47 60 55 89 35 121 -9 13 -128 94 -266 181 l-250 159
-3 190 c-3 188 -3 192 -32 251 -54 109 -156 189 -274 214 -84 18 -1191 14
-1259 -4z m1253 -140 c66 -19 121 -67 150 -129 22 -47 24 -64 24 -203 l0 -153
-790 0 -790 0 0 146 c0 178 9 214 71 276 78 78 63 77 715 77 474 1 579 -1 620
-14z m441 -756 c114 -72 212 -135 217 -140 28 -26 -100 -96 -191 -105 -77 -8
-188 16 -283 62 -113 54 -177 74 -260 81 -105 8 -166 -8 -309 -80 l-123 -62
-108 0 -108 0 -123 62 c-143 72 -204 88 -309 80 -83 -7 -147 -27 -260 -81
-137 -66 -278 -81 -375 -40 -49 20 -107 62 -103 75 2 5 98 69 213 143 l210
134 852 1 852 1 208 -131z m-1464 -253 c25 -7 72 -29 104 -49 126 -76 281
-103 423 -73 72 15 92 24 226 95 108 58 219 53 367 -16 l77 -36 0 -187 c0
-204 -14 -318 -57 -455 -98 -313 -356 -596 -599 -660 -75 -19 -193 -19 -268 0
-243 63 -501 347 -599 660 -43 137 -57 251 -57 455 l0 187 78 36 c122 57 214
70 305 43z m-523 -388 c0 -59 12 -166 26 -230 7 -37 -7 -35 -51 4 -53 46 -77
99 -78 175 -2 59 0 67 26 89 15 13 39 24 53 24 23 0 24 -3 24 -62z m1942 32
c29 -30 30 -33 24 -92 -9 -75 -33 -125 -81 -166 -44 -39 -58 -41 -51 -4 14 64
26 171 26 230 0 60 1 62 26 62 15 0 38 -12 56 -30z m-1178 -1160 c159 -40 335
-19 487 58 l75 39 89 -26 c56 -16 91 -32 93 -41 1 -8 -38 -263 -88 -567 -49
-303 -90 -554 -90 -558 0 -3 -16 -5 -36 -3 -34 3 -37 7 -63 68 -17 42 -35 69
-51 77 -35 18 -465 18 -500 0 -16 -8 -34 -35 -51 -77 -26 -61 -29 -65 -63 -68
-20 -2 -36 0 -36 3 0 4 -41 255 -90 558 -50 304 -89 559 -88 567 2 9 36 25 92
41 l90 26 75 -38 c42 -21 112 -48 155 -59z m362 -1144 c40 -98 35 -96 206 -96
l148 0 0 -350 0 -350 -550 0 -550 0 0 350 0 350 148 0 c178 0 168 -6 223 138
9 22 10 22 180 20 l171 -3 24 -59z"/>
<path d="M2175 3495 c-54 -53 -11 -155 65 -155 45 0 90 47 90 95 0 78 -99 116
-155 60z"/>
<path d="M2815 3495 c-54 -53 -11 -155 65 -155 45 0 90 47 90 95 0 78 -99 116
-155 60z"/>
<path d="M2246 2929 c-37 -29 -35 -72 5 -110 17 -16 65 -46 107 -66 76 -38 77
-38 201 -38 124 0 127 1 201 36 134 64 176 130 114 178 -36 29 -48 27 -116
-19 -72 -48 -112 -60 -198 -60 -86 0 -126 12 -198 60 -68 46 -80 48 -116 19z"/>
<path d="M2465 943 c-71 -24 -155 -110 -178 -182 -36 -113 -13 -206 72 -292
85 -85 176 -107 291 -73 75 22 162 109 184 184 20 68 20 115 -1 179 -47 147
-222 234 -368 184z m174 -150 c67 -51 86 -117 52 -186 -24 -49 -80 -87 -130
-87 -75 0 -151 73 -151 146 0 115 140 192 229 127z"/>
<path d="M1515 1345 l-25 -24 0 -546 0 -546 25 -24 c31 -32 59 -32 90 0 l25
24 0 546 0 546 -25 24 c-13 14 -33 25 -45 25 -11 0 -32 -11 -45 -25z"/>
<path d="M3515 1345 l-25 -24 0 -546 0 -546 25 -24 c31 -32 59 -32 90 0 l25
24 0 546 0 546 -25 24 c-13 14 -33 25 -45 25 -11 0 -32 -11 -45 -25z"/>
</g>
</svg>
