<svg width="50" height="50" viewBox="0 0 50 50" fill="none" xmlns="http://www.w3.org/2000/svg">
<g clip-path="url(#clip0_127_174)">
<path d="M9.69176 7.206C7.07421 7.54655 5.16966 9.17124 5.16966 11.0726C5.16966 11.5196 5.32593 12.1581 5.50173 12.4703C5.5701 12.5767 5.40406 12.5909 3.68508 12.6122C1.61448 12.6335 1.45821 12.6619 0.794059 13.123C0.120138 13.5771 0.0420027 13.7686 0.0127018 15.1663C-0.0165991 16.2944 -0.00683215 16.4505 0.168973 16.7343C0.27641 16.9116 0.481516 17.1103 0.618253 17.1741L0.872194 17.2947V21.2394C0.872194 25.0919 0.872194 25.1912 1.0773 25.4892C1.43868 26.0355 2.37631 26.5037 3.10883 26.5037H3.31393V34.0951V41.6865H1.89773C0.510817 41.6865 0.461982 41.6936 0.237342 41.8639C-0.0752009 42.0838 -0.0752009 42.396 0.227575 42.6585L0.461982 42.8571H6.41006H12.3484L12.8172 42.6869C13.2079 42.5521 13.6571 42.2115 15.3468 40.7713C16.4798 39.8135 17.5249 38.9408 17.6811 38.8273L17.9644 38.6358H25.5142H33.0641L35.7402 40.0263C37.2151 40.7926 38.5824 41.4737 38.768 41.5375C39.0708 41.6368 39.7447 41.651 44.3156 41.651H49.5312L49.7656 41.4524C50.0488 41.2112 50.0684 40.9132 49.8144 40.6862L49.6289 40.5159L44.511 40.4804L39.4029 40.4449L36.7755 39.0756C35.33 38.3236 34.0115 37.6567 33.8455 37.5857C33.611 37.4935 33.2204 37.4651 32.1167 37.4438L30.6907 37.4155L30.7689 37.1601C30.8177 37.0111 30.8568 36.2661 30.8568 35.4857V34.0738L33.1129 31.2147L35.3691 28.3484L39.1782 28.3626L42.9971 28.3838L45.7611 31.8957C47.275 33.8255 48.6131 35.4502 48.7303 35.507C49.2382 35.7553 50 35.4715 50 35.0316C50 34.7337 40.5651 22.779 40.1549 22.5449C39.6763 22.2824 38.8657 22.254 38.3285 22.4739C37.9671 22.6229 37.6448 23.006 34.4217 27.1068L30.9056 31.5694L30.8763 26.5818L30.8568 21.6013L31.1009 21.3671C31.9311 20.5796 31.7846 19.4019 30.7786 18.6782C29.9387 18.0752 29.8117 18.061 25.9049 18.061H22.5158L19.9666 16.2234C17.1635 14.1943 16.8705 14.0382 15.464 13.8538C15.1027 13.8041 14.7901 13.7261 14.7608 13.6764C14.7413 13.6338 14.8585 13.4565 15.0245 13.2791C15.8645 12.3923 16.1673 11.0726 15.7668 10.0723C15.3957 9.14287 14.5069 8.25602 13.4716 7.77358C12.446 7.29823 10.8638 7.05701 9.69176 7.206ZM11.2447 8.4192C12.4167 8.59657 13.4423 9.18543 13.9404 9.95876C14.1748 10.3135 14.2041 10.4554 14.2041 11.0726C14.2041 11.7254 14.1748 11.8176 13.8818 12.2717C13.5985 12.7115 13.5497 12.7541 13.3446 12.6973C13.2274 12.669 11.8405 12.6335 10.268 12.6193L7.39652 12.5909L7.14258 12.1865C6.90818 11.8318 6.87887 11.6899 6.87887 11.0726C6.87887 10.4412 6.90818 10.3206 7.15235 9.96586C7.68953 9.15706 8.61739 8.61785 9.76013 8.44048C10.4536 8.32697 10.6196 8.32697 11.2447 8.4192ZM12.8367 13.8751C13.2469 13.9886 13.3739 14.322 13.3739 15.3295V16.2163H7.51373H1.65355V15.216V14.2156L1.93679 14.0099L2.22003 13.8041H7.40629C10.6001 13.8041 12.6804 13.8325 12.8367 13.8751ZM15.9231 15.216C16.3235 15.3437 19.9178 17.8268 19.9178 17.9758C19.9178 18.0255 19.5857 18.3731 19.1657 18.7421L18.4234 19.4161L17.7202 18.9123C17.183 18.5221 16.9486 18.4086 16.7337 18.4015C16.3431 18.3944 16.0207 18.5292 15.9133 18.7421C15.8547 18.8485 15.8156 20.161 15.8156 21.8283V24.73H14.9855H14.1553V21.0337V17.3302L14.4873 17.0606C14.9171 16.7201 15.0343 16.4079 15.0343 15.6275V15.0102L15.3078 15.0528C15.4543 15.0812 15.7277 15.1521 15.9231 15.216ZM12.4949 18.4512C12.4949 19.1678 12.4558 19.5509 12.3581 19.7141C12.2019 19.9907 11.7624 20.2958 11.3912 20.3951C11.2154 20.4448 9.81873 20.4732 7.48443 20.4732C3.42137 20.4732 3.2944 20.459 2.81582 19.9695C2.59118 19.7424 2.58141 19.6573 2.55211 18.5718L2.52281 17.4224H7.50396H12.4949V18.4512ZM21.9005 19.189C22.0567 19.2387 22.9553 19.2671 24.0297 19.2671H25.8854L25.8561 20.1681L25.8268 21.0762H23.5315H21.2363L20.6991 20.8847C20.3963 20.7783 20.035 20.5938 19.8787 20.4803L19.6052 20.2745L20.4061 19.5509L21.207 18.8343L21.4219 18.9762C21.5293 19.0542 21.754 19.1465 21.9005 19.189ZM29.294 19.3593C29.6261 19.4799 29.9777 19.8843 29.9777 20.1326C29.9777 20.7357 29.4308 21.0479 28.2978 21.0975L27.536 21.133V20.1965V19.2671H28.2978C28.708 19.2671 29.1573 19.3097 29.294 19.3593ZM19.9471 21.9631C20.7968 22.254 21.5195 22.3178 23.8343 22.3178H25.8463L25.8365 29.6751C25.8268 33.7262 25.8658 37.1317 25.9049 37.2381L25.983 37.4368L25.0747 37.4155L24.1664 37.3942L24.1078 36.7557C24.0492 36.11 23.8832 35.7553 23.4046 35.287C23.1506 35.0387 22.3107 34.613 21.9493 34.5492L21.6758 34.5066V31.5481C21.6758 29.2281 21.6465 28.4903 21.5293 28.1001C21.1679 26.8443 19.9471 25.7304 18.3355 25.1628L17.476 24.8578V22.6584V20.4519L18.4039 21.1046C19.068 21.5729 19.5076 21.8212 19.9471 21.9631ZM3.30417 21.58C3.53857 21.6367 3.84135 21.6793 3.96832 21.6793C4.19296 21.6793 4.19296 21.6935 4.19296 22.4101C4.19296 23.0841 4.21249 23.155 4.4176 23.2898C4.72038 23.4956 5.00362 23.5452 5.31616 23.4388C5.72637 23.304 5.85334 23.0415 5.85334 22.3178V21.6793H7.51373H9.17411V22.3817C9.17411 23.0273 9.19364 23.1053 9.40852 23.2827C9.58432 23.4317 9.72106 23.4814 10.0043 23.4814C10.2875 23.4814 10.4243 23.4317 10.6001 23.2827C10.815 23.1053 10.8345 23.0273 10.8345 22.3817C10.8345 21.6935 10.8345 21.6793 11.0591 21.6793C11.274 21.6793 11.9284 21.5516 12.3288 21.431C12.4851 21.3813 12.4949 21.4948 12.4949 23.1479V24.9216L12.2507 25.1132L12.0163 25.2976H7.51373H3.01116L2.77675 25.1203L2.53258 24.95V23.1621C2.53258 21.4948 2.54234 21.3813 2.70838 21.431C2.79629 21.4594 3.06976 21.5303 3.30417 21.58ZM29.1964 29.5687C29.1964 35.287 29.1671 36.933 29.0694 37.0749C28.8057 37.458 28.1513 37.5219 27.7313 37.2168C27.536 37.0749 27.536 36.9472 27.536 29.6964V22.3249L28.2001 22.2965C28.5615 22.2824 28.9327 22.2682 29.0303 22.2611C29.1866 22.2469 29.1964 22.6371 29.1964 29.5687ZM40.6237 25.3686L41.9911 27.1068L40.5749 27.1281C39.7935 27.1352 38.5238 27.1352 37.7522 27.1281L36.336 27.1068L37.7229 25.3473C38.4848 24.3824 39.1391 23.602 39.1782 23.6091C39.227 23.6233 39.8717 24.4108 40.6237 25.3686ZM17.0951 26.078C17.8667 26.2696 18.2965 26.4754 18.8727 26.9223C19.4099 27.3338 19.7713 27.8588 19.9178 28.4193C19.9764 28.6322 20.0154 30.0085 20.0154 31.5836V34.3789H17.8667C16.6849 34.3789 15.718 34.3576 15.718 34.3222C15.7082 34.0455 14.9268 29.8312 14.8585 29.6893C14.5557 29.1146 13.6962 28.8734 12.153 28.9301C11.0884 28.9727 10.6196 29.1146 10.2778 29.4977C10.0238 29.7673 10.0238 29.7957 9.62339 34.1874L9.22294 38.6003L7.10351 38.6216L4.97432 38.6358V32.5698V26.5037H8.61739C11.987 26.5037 12.28 26.4895 12.6414 26.3618C12.8563 26.2909 13.1395 26.1632 13.2762 26.0851C13.5009 25.9503 13.6571 25.9362 15.0148 25.9362C16.2649 25.9362 16.6068 25.9574 17.0951 26.078ZM13.745 32.6194C14.1064 34.6982 14.165 35.2445 14.1553 36.3513C14.1553 37.7418 14.2139 37.9618 14.6631 38.2597C14.7901 38.352 15.0636 38.4797 15.2687 38.5506L15.6398 38.6854L14.4873 39.6574C13.4032 40.5726 13.3251 40.6294 13.2372 40.4662C12.7781 39.6219 12.3191 39.2175 11.4889 38.9196L10.8833 38.7067L11.2642 34.4499L11.6549 30.193H12.4949H13.3348L13.745 32.6194ZM21.7051 35.7979C22.2325 36.0604 22.4572 36.4009 22.4572 36.9614V37.4297H19.1364H15.8156V36.5002V35.5779L18.5797 35.5992C21.3437 35.6205 21.3535 35.6205 21.7051 35.7979ZM10.6978 39.9767C11.3326 40.1824 11.5572 40.4804 11.6061 41.1331L11.6354 41.6865H8.30485H4.97432V40.7642V39.8419H7.6407C10.0238 39.8419 10.3364 39.8561 10.6978 39.9767Z" fill="#04101C"/>
<path d="M6.09752 18.2383C5.85335 18.4086 5.78498 18.6995 5.91195 18.9478C6.03892 19.182 6.4882 19.2671 7.56257 19.2671C8.57833 19.2671 8.60763 19.26 8.89087 19.0613C9.05691 18.9336 9.17412 18.7776 9.17412 18.664C9.17412 18.5505 9.05691 18.3944 8.89087 18.2667C8.60763 18.061 8.5881 18.061 7.4649 18.061C6.39053 18.061 6.32216 18.0681 6.09752 18.2383Z" fill="#04101C"/>
<path d="M40.4772 7.22018C40.1159 7.36208 40.0377 7.50397 40.0377 8.03608C40.0377 8.49724 40.067 8.58238 40.2819 8.73137C40.5847 8.9584 41.0144 8.9584 41.366 8.74556C41.5809 8.61076 41.6395 8.50433 41.6786 8.17798C41.7274 7.68844 41.5711 7.37627 41.2 7.24147C40.8777 7.11376 40.7409 7.11376 40.4772 7.22018Z" fill="#04101C"/>
<path d="M34.6073 9.00807C34.4119 9.07193 34.2654 9.18544 34.1873 9.34153C34.0408 9.6466 34.2752 9.98715 34.8612 10.3135C35.2031 10.5051 35.3496 10.5476 35.584 10.5122C36.5021 10.3774 36.5216 9.66079 35.6231 9.17125C35.1835 8.93003 34.9687 8.90165 34.6073 9.00807Z" fill="#04101C"/>
<path d="M46.4351 8.97258C46.3276 9.00806 46.0542 9.17833 45.8198 9.3557C45.517 9.58273 45.39 9.73172 45.39 9.88781C45.3705 10.3703 45.9858 10.6611 46.562 10.4412C47.0211 10.2709 47.5583 9.78848 47.5583 9.55435C47.5583 9.15705 46.9137 8.82359 46.4351 8.97258Z" fill="#04101C"/>
<path d="M39.608 10.2993C37.889 10.6044 36.3946 11.6899 35.9844 12.9598C35.6133 14.1092 36.043 15.3508 37.1076 16.2305C38.5629 17.4366 41.2293 17.7772 43.2022 17.0109C43.837 16.7697 44.9016 15.9964 45.2337 15.5352C46.2495 14.1589 45.8979 12.3994 44.384 11.2784C43.1436 10.3632 41.3367 9.99423 39.608 10.2993ZM42.1278 11.5976C42.8506 11.8247 43.378 12.1794 43.7589 12.6831C44.0715 13.1017 44.091 13.1727 44.091 13.8041C44.091 14.6058 43.8859 14.9889 43.1631 15.5069C42.4501 16.0319 41.9227 16.1809 40.8191 16.1809C39.9498 16.1809 39.8521 16.1667 39.2759 15.9396C38.5922 15.67 38.1038 15.2869 37.7718 14.7548C37.4592 14.2724 37.4592 13.3501 37.762 12.8676C38.1527 12.2504 39.0024 11.697 39.8717 11.4912C40.4479 11.3493 41.532 11.4061 42.1278 11.5976Z" fill="#04101C"/>
<path d="M31.9311 13.3784C31.6577 13.5771 31.5991 13.8254 31.7749 14.0737C31.9702 14.3504 32.3902 14.471 33.0739 14.4285C33.5232 14.4001 33.6697 14.3575 33.8552 14.2014C34.1482 13.946 34.1482 13.6338 33.8357 13.4139C33.6306 13.2578 33.5134 13.2365 32.859 13.2365C32.2632 13.2365 32.0874 13.2649 31.9311 13.3784Z" fill="#04101C"/>
<path d="M47.8513 13.3784C47.5876 13.57 47.5192 13.8325 47.6755 14.0595C47.861 14.3575 48.1931 14.4497 48.9159 14.4214C49.453 14.4001 49.5703 14.3717 49.7656 14.2014C50.0684 13.946 50.0684 13.6338 49.7558 13.4139C49.5507 13.2578 49.4335 13.2365 48.7791 13.2365C48.1833 13.2365 48.0075 13.2649 47.8513 13.3784Z" fill="#04101C"/>
<path d="M34.617 17.4934C34.2166 17.7843 34.1385 17.8907 34.1385 18.1035C34.1385 18.4228 34.5291 18.6995 34.9686 18.6995C35.291 18.6995 35.9551 18.3093 36.1895 17.9687C36.4825 17.5643 36.1016 17.1387 35.4668 17.1387C35.1542 17.1387 35.0273 17.1883 34.617 17.4934Z" fill="#04101C"/>
<path d="M45.6244 17.3018C45.263 17.5785 45.3314 17.9262 45.8295 18.3022C46.0541 18.4725 46.3667 18.6427 46.523 18.6711C46.8746 18.735 47.2457 18.6002 47.4508 18.3377C47.6559 18.0752 47.5192 17.7914 47.0113 17.4437C46.4839 17.0748 45.976 17.0251 45.6244 17.3018Z" fill="#04101C"/>
<path d="M40.4772 18.7775C40.1159 18.9265 40.0377 19.0684 40.0377 19.6005C40.0377 20.0617 40.067 20.1468 40.2819 20.2958C40.5847 20.5229 41.0144 20.5229 41.3758 20.3029C41.6297 20.1397 41.6493 20.0972 41.6493 19.5934C41.6493 19.1536 41.6102 19.033 41.4539 18.9194C41.2098 18.7421 40.7312 18.6711 40.4772 18.7775Z" fill="#04101C"/>
</g>
<defs>
<clipPath id="clip0_127_174">
<rect width="50" height="50" fill="white"/>
</clipPath>
</defs>
</svg>
